<mxfile host="app.diagrams.net" agent="Mozilla/5.0 (Windows NT 10.0; Win64; x64; rv:130.0) Gecko/20100101 Firefox/130.0" version="24.7.15">
  <diagram name="PÃ¡gina-1" id="nWLG7lNp42WIRt6Slofu">
    <mxGraphModel grid="1" page="1" gridSize="10" guides="1" tooltips="1" connect="1" arrows="1" fold="1" pageScale="1" pageWidth="827" pageHeight="1169" math="0" shadow="0">
      <root>
        <mxCell id="0" />
        <mxCell id="1" parent="0" />
        <mxCell id="TXARMitppGOekWoNEKqO-1" value="Interfaz" style="shape=umlLifeline;perimeter=lifelinePerimeter;whiteSpace=wrap;html=1;container=1;collapsible=0;recursiveResize=0;outlineConnect=0;rounded=1;shadow=0;comic=0;labelBackgroundColor=none;strokeWidth=1;fontFamily=Verdana;fontSize=12;align=center;" vertex="1" parent="1">
          <mxGeometry x="400" y="40" width="100" height="560" as="geometry" />
        </mxCell>
        <mxCell id="TXARMitppGOekWoNEKqO-8" value="Capa de negocio" style="shape=umlLifeline;perimeter=lifelinePerimeter;whiteSpace=wrap;html=1;container=1;collapsible=0;recursiveResize=0;outlineConnect=0;rounded=1;shadow=0;comic=0;labelBackgroundColor=none;strokeWidth=1;fontFamily=Verdana;fontSize=12;align=center;" vertex="1" parent="1">
          <mxGeometry x="600" y="40" width="100" height="560" as="geometry" />
        </mxCell>
        <mxCell id="TXARMitppGOekWoNEKqO-13" value="Base de datos" style="shape=umlLifeline;perimeter=lifelinePerimeter;whiteSpace=wrap;html=1;container=1;collapsible=0;recursiveResize=0;outlineConnect=0;rounded=1;shadow=0;comic=0;labelBackgroundColor=none;strokeWidth=1;fontFamily=Verdana;fontSize=12;align=center;" vertex="1" parent="1">
          <mxGeometry x="820" y="40" width="100" height="560" as="geometry" />
        </mxCell>
        <mxCell id="TXARMitppGOekWoNEKqO-16" value="Usuario" style="shape=umlLifeline;perimeter=lifelinePerimeter;whiteSpace=wrap;html=1;container=1;collapsible=0;recursiveResize=0;outlineConnect=0;rounded=1;shadow=0;comic=0;labelBackgroundColor=none;strokeWidth=1;fontFamily=Verdana;fontSize=12;align=center;" vertex="1" parent="1">
          <mxGeometry x="190" y="40" width="100" height="560" as="geometry" />
        </mxCell>
        <mxCell id="H3cCl5--4MaUO_eVsSf0-35" value="" style="html=1;points=[];perimeter=orthogonalPerimeter;rounded=0;shadow=0;comic=0;labelBackgroundColor=none;strokeWidth=1;fontFamily=Verdana;fontSize=12;align=center;" vertex="1" parent="1">
          <mxGeometry x="445" y="160" width="10" height="20" as="geometry" />
        </mxCell>
        <mxCell id="H3cCl5--4MaUO_eVsSf0-36" value="" style="html=1;points=[];perimeter=orthogonalPerimeter;rounded=0;shadow=0;comic=0;labelBackgroundColor=none;strokeWidth=1;fontFamily=Verdana;fontSize=12;align=center;" vertex="1" parent="1">
          <mxGeometry x="445" y="190" width="10" height="30" as="geometry" />
        </mxCell>
        <mxCell id="H3cCl5--4MaUO_eVsSf0-38" value="" style="html=1;points=[];perimeter=orthogonalPerimeter;rounded=0;shadow=0;comic=0;labelBackgroundColor=none;strokeWidth=1;fontFamily=Verdana;fontSize=12;align=center;" vertex="1" parent="1">
          <mxGeometry x="645" y="220" width="10" height="30" as="geometry" />
        </mxCell>
        <mxCell id="H3cCl5--4MaUO_eVsSf0-39" value="" style="html=1;points=[];perimeter=orthogonalPerimeter;rounded=0;shadow=0;comic=0;labelBackgroundColor=none;strokeWidth=1;fontFamily=Verdana;fontSize=12;align=center;" vertex="1" parent="1">
          <mxGeometry x="865" y="250" width="10" height="30" as="geometry" />
        </mxCell>
        <mxCell id="H3cCl5--4MaUO_eVsSf0-40" value="5.- Seleccionar datos guardados" style="html=1;verticalAlign=bottom;endArrow=block;labelBackgroundColor=none;fontFamily=Verdana;fontSize=12;edgeStyle=elbowEdgeStyle;elbow=vertical;exitX=0.96;exitY=0.118;exitDx=0;exitDy=0;exitPerimeter=0;entryX=0.5;entryY=0;entryDx=0;entryDy=0;entryPerimeter=0;" edge="1" parent="1" target="H3cCl5--4MaUO_eVsSf0-39">
          <mxGeometry x="-0.0435" y="-20" relative="1" as="geometry">
            <mxPoint x="648.1" y="250.01" as="sourcePoint" />
            <mxPoint x="853" y="250" as="targetPoint" />
            <mxPoint as="offset" />
          </mxGeometry>
        </mxCell>
        <mxCell id="H3cCl5--4MaUO_eVsSf0-41" value="" style="html=1;verticalAlign=bottom;endArrow=block;labelBackgroundColor=none;fontFamily=Verdana;fontSize=12;edgeStyle=elbowEdgeStyle;elbow=vertical;exitX=1.057;exitY=0.321;exitDx=0;exitDy=0;exitPerimeter=0;" edge="1" parent="1">
          <mxGeometry x="0.0474" y="20" relative="1" as="geometry">
            <mxPoint x="871" y="280.5" as="sourcePoint" />
            <mxPoint x="1" as="offset" />
            <mxPoint x="450" y="280" as="targetPoint" />
            <Array as="points">
              <mxPoint x="965.4300000000001" y="280" />
            </Array>
          </mxGeometry>
        </mxCell>
        <mxCell id="H3cCl5--4MaUO_eVsSf0-42" value="6.- Administrar datos guardados" style="edgeLabel;html=1;align=center;verticalAlign=middle;resizable=0;points=[];" connectable="0" vertex="1" parent="H3cCl5--4MaUO_eVsSf0-41">
          <mxGeometry x="-0.1588" y="2" relative="1" as="geometry">
            <mxPoint y="9" as="offset" />
          </mxGeometry>
        </mxCell>
        <mxCell id="H3cCl5--4MaUO_eVsSf0-43" value="" style="html=1;points=[];perimeter=orthogonalPerimeter;rounded=0;shadow=0;comic=0;labelBackgroundColor=none;strokeWidth=1;fontFamily=Verdana;fontSize=12;align=center;" vertex="1" parent="1">
          <mxGeometry x="235" y="160" width="10" height="150" as="geometry" />
        </mxCell>
        <mxCell id="H3cCl5--4MaUO_eVsSf0-44" value="1.- Iniciar aplicacion" style="html=1;verticalAlign=bottom;endArrow=block;entryX=0;entryY=0;labelBackgroundColor=none;fontFamily=Verdana;fontSize=12;edgeStyle=elbowEdgeStyle;elbow=vertical;exitX=0.68;exitY=-0.003;exitDx=0;exitDy=0;exitPerimeter=0;" edge="1" parent="1">
          <mxGeometry relative="1" as="geometry">
            <mxPoint x="241.79999999999995" y="160" as="sourcePoint" />
            <mxPoint as="offset" />
            <mxPoint x="445" y="161.5" as="targetPoint" />
          </mxGeometry>
        </mxCell>
        <mxCell id="H3cCl5--4MaUO_eVsSf0-45" value="3.- Seleccionar diagramas" style="html=1;verticalAlign=bottom;endArrow=block;labelBackgroundColor=none;fontFamily=Verdana;fontSize=12;edgeStyle=elbowEdgeStyle;elbow=vertical;exitX=0.96;exitY=0.118;exitDx=0;exitDy=0;exitPerimeter=0;" edge="1" parent="1">
          <mxGeometry x="-0.0435" y="-20" relative="1" as="geometry">
            <mxPoint x="244.60000000000002" y="190.01" as="sourcePoint" />
            <mxPoint x="449.5" y="190" as="targetPoint" />
            <mxPoint as="offset" />
          </mxGeometry>
        </mxCell>
        <mxCell id="H3cCl5--4MaUO_eVsSf0-46" value="2.- Desp. apartado menu" style="html=1;verticalAlign=bottom;endArrow=block;labelBackgroundColor=none;fontFamily=Verdana;fontSize=12;edgeStyle=elbowEdgeStyle;elbow=vertical;exitX=-0.08;exitY=1;exitDx=0;exitDy=0;exitPerimeter=0;" edge="1" parent="1" source="H3cCl5--4MaUO_eVsSf0-35" target="H3cCl5--4MaUO_eVsSf0-43">
          <mxGeometry x="0.0028" y="1" relative="1" as="geometry">
            <mxPoint x="454.6700000000001" y="181.09000000000003" as="sourcePoint" />
            <mxPoint x="270" y="180" as="targetPoint" />
            <mxPoint as="offset" />
            <Array as="points">
              <mxPoint x="340" y="180" />
            </Array>
          </mxGeometry>
        </mxCell>
        <mxCell id="H3cCl5--4MaUO_eVsSf0-47" value="7.- Sist. muestra estado del clima" style="html=1;verticalAlign=bottom;endArrow=block;labelBackgroundColor=none;fontFamily=Verdana;fontSize=12;edgeStyle=elbowEdgeStyle;elbow=vertical;exitX=-0.08;exitY=1;exitDx=0;exitDy=0;exitPerimeter=0;" edge="1" parent="1">
          <mxGeometry x="0.0028" y="1" relative="1" as="geometry">
            <mxPoint x="444" y="303" as="sourcePoint" />
            <mxPoint x="245" y="303" as="targetPoint" />
            <mxPoint as="offset" />
            <Array as="points">
              <mxPoint x="340" y="303" />
            </Array>
          </mxGeometry>
        </mxCell>
        <mxCell id="H3cCl5--4MaUO_eVsSf0-50" value="4.- Verificar diagramas" style="html=1;verticalAlign=bottom;endArrow=block;labelBackgroundColor=none;fontFamily=Verdana;fontSize=12;edgeStyle=elbowEdgeStyle;elbow=vertical;exitX=0.96;exitY=0.118;exitDx=0;exitDy=0;exitPerimeter=0;" edge="1" parent="1">
          <mxGeometry x="-0.0435" y="-20" relative="1" as="geometry">
            <mxPoint x="447.5" y="220.01" as="sourcePoint" />
            <mxPoint x="652" y="220" as="targetPoint" />
            <mxPoint as="offset" />
            <Array as="points" />
          </mxGeometry>
        </mxCell>
        <mxCell id="H3cCl5--4MaUO_eVsSf0-51" value="" style="html=1;points=[];perimeter=orthogonalPerimeter;rounded=0;shadow=0;comic=0;labelBackgroundColor=none;strokeWidth=1;fontFamily=Verdana;fontSize=12;align=center;" vertex="1" parent="1">
          <mxGeometry x="445" y="279" width="10" height="24" as="geometry" />
        </mxCell>
      </root>
    </mxGraphModel>
  </diagram>
</mxfile>
